<svg width="19" height="19" viewBox="0 0 19 19" fill="none" xmlns="http://www.w3.org/2000/svg">
<path d="M6.3335 2.17712H3.9585C2.97474 2.17712 2.17725 2.97462 2.17725 3.95837V15.0417C2.17725 16.0255 2.97474 16.823 3.9585 16.823H6.3335C7.31725 16.823 8.11475 16.0255 8.11475 15.0417V3.95837C8.11475 2.97462 7.31725 2.17712 6.3335 2.17712Z" stroke="#B6252A"/>
<path d="M15.0415 2.17712H12.6665C11.6827 2.17712 10.8853 2.97462 10.8853 3.95837V6.33337C10.8853 7.31713 11.6827 8.11462 12.6665 8.11462H15.0415C16.0253 8.11462 16.8228 7.31713 16.8228 6.33337V3.95837C16.8228 2.97462 16.0253 2.17712 15.0415 2.17712Z" stroke="#B6252A"/>
<path d="M15.0415 10.8854H12.6665C11.6827 10.8854 10.8853 11.6829 10.8853 12.6666V15.0416C10.8853 16.0254 11.6827 16.8229 12.6665 16.8229H15.0415C16.0253 16.8229 16.8228 16.0254 16.8228 15.0416V12.6666C16.8228 11.6829 16.0253 10.8854 15.0415 10.8854Z" stroke="#B6252A"/>
</svg>
