<svg width="30" height="24" viewBox="0 0 30 24" fill="none" xmlns="http://www.w3.org/2000/svg">
<path d="M15.25 6C15.25 7.79493 13.7949 9.25 12 9.25C10.2051 9.25 8.75 7.79493 8.75 6C8.75 4.20507 10.2051 2.75 12 2.75C13.7949 2.75 15.25 4.20507 15.25 6Z" stroke="#1B1B1B" stroke-width="1.5"/>
<path d="M18.25 17C18.25 18.0756 17.6409 19.1202 16.5138 19.9252C15.3882 20.7293 13.7947 21.25 12 21.25C10.2053 21.25 8.61181 20.7293 7.48618 19.9252C6.35911 19.1202 5.75 18.0756 5.75 17C5.75 15.9244 6.35911 14.8798 7.48618 14.0748C8.61181 13.2707 10.2053 12.75 12 12.75C13.7947 12.75 15.3882 13.2707 16.5138 14.0748C17.6409 14.8798 18.25 15.9244 18.25 17Z" stroke="#1B1B1B" stroke-width="1.5"/>
<path fill-rule="evenodd" clip-rule="evenodd" d="M25.8493 3.81387C25.0507 3.1139 23.8307 3.18716 23.1238 3.97791C23.1238 3.97791 19.6102 7.90777 18.3918 9.27184C17.1718 10.6351 18.0661 12.5185 18.0661 12.5185C18.0661 12.5185 20.0798 13.15 21.2813 11.8058C22.4836 10.4615 26.015 6.51261 26.015 6.51261C26.7219 5.72186 26.6471 4.51383 25.8493 3.81387Z" stroke="#1B1B1B" stroke-width="1.5" stroke-linecap="round" stroke-linejoin="round"/>
<path d="M22.0435 5.25388L24.7064 7.57947" stroke="#1B1B1B" stroke-width="1.5" stroke-linecap="round" stroke-linejoin="round"/>
</svg>
