<svg width="140" height="102" viewBox="0 0 140 102" fill="none" xmlns="http://www.w3.org/2000/svg">
<path d="M24 9.3C24 5.26275 24 3.24412 25.0978 1.87379C25.3272 1.58746 25.5875 1.32724 25.8738 1.09785C27.2441 0 29.2628 0 33.3 0H53.9897C56.4687 0 57.7082 0 58.7572 0.519752C58.981 0.630622 59.1962 0.758101 59.4009 0.901119C60.3606 1.57158 60.956 2.65874 62.1467 4.83307L63.461 7.23307C66.5492 12.8725 68.0934 15.6922 67.1861 17.9003C67.002 18.3482 66.7539 18.7671 66.4494 19.1436C64.9485 21 61.7337 21 55.304 21H33.3C29.2628 21 27.2441 21 25.8738 19.9022C25.5875 19.6728 25.3272 19.4125 25.0978 19.1262C24 17.7559 24 15.7372 24 11.7V9.3Z" fill="#B6252A"/>
<path d="M24 14H112C114.209 14 116 15.7909 116 18V68C116 70.2091 114.209 72 112 72H28C25.7909 72 24 70.2091 24 68V14Z" fill="#E9292F"/>
<path d="M6.072 89.636V90.524H3.792V98H2.7V90.524H0.408V89.636H6.072ZM7.00819 94.688C7.00819 94.016 7.14419 93.428 7.41619 92.924C7.68819 92.412 8.06019 92.016 8.53219 91.736C9.01219 91.456 9.54419 91.316 10.1282 91.316C10.7042 91.316 11.2042 91.44 11.6282 91.688C12.0522 91.936 12.3682 92.248 12.5762 92.624V91.424H13.6802V98H12.5762V96.776C12.3602 97.16 12.0362 97.48 11.6042 97.736C11.1802 97.984 10.6842 98.108 10.1162 98.108C9.53219 98.108 9.00419 97.964 8.53219 97.676C8.06019 97.388 7.68819 96.984 7.41619 96.464C7.14419 95.944 7.00819 95.352 7.00819 94.688ZM12.5762 94.7C12.5762 94.204 12.4762 93.772 12.2762 93.404C12.0762 93.036 11.8042 92.756 11.4602 92.564C11.1242 92.364 10.7522 92.264 10.3442 92.264C9.93619 92.264 9.56419 92.36 9.22819 92.552C8.89219 92.744 8.62419 93.024 8.42419 93.392C8.22419 93.76 8.12419 94.192 8.12419 94.688C8.12419 95.192 8.22419 95.632 8.42419 96.008C8.62419 96.376 8.89219 96.66 9.22819 96.86C9.56419 97.052 9.93619 97.148 10.3442 97.148C10.7522 97.148 11.1242 97.052 11.4602 96.86C11.8042 96.66 12.0762 96.376 12.2762 96.008C12.4762 95.632 12.5762 95.196 12.5762 94.7ZM16.6176 92.636C16.8336 92.26 17.1536 91.948 17.5776 91.7C18.0096 91.444 18.5096 91.316 19.0776 91.316C19.6616 91.316 20.1896 91.456 20.6616 91.736C21.1416 92.016 21.5176 92.412 21.7896 92.924C22.0616 93.428 22.1976 94.016 22.1976 94.688C22.1976 95.352 22.0616 95.944 21.7896 96.464C21.5176 96.984 21.1416 97.388 20.6616 97.676C20.1896 97.964 19.6616 98.108 19.0776 98.108C18.5176 98.108 18.0216 97.984 17.5896 97.736C17.1656 97.48 16.8416 97.164 16.6176 96.788V101.12H15.5256V91.424H16.6176V92.636ZM21.0816 94.688C21.0816 94.192 20.9816 93.76 20.7816 93.392C20.5816 93.024 20.3096 92.744 19.9656 92.552C19.6296 92.36 19.2576 92.264 18.8496 92.264C18.4496 92.264 18.0776 92.364 17.7336 92.564C17.3976 92.756 17.1256 93.04 16.9176 93.416C16.7176 93.784 16.6176 94.212 16.6176 94.7C16.6176 95.196 16.7176 95.632 16.9176 96.008C17.1256 96.376 17.3976 96.66 17.7336 96.86C18.0776 97.052 18.4496 97.148 18.8496 97.148C19.2576 97.148 19.6296 97.052 19.9656 96.86C20.3096 96.66 20.5816 96.376 20.7816 96.008C20.9816 95.632 21.0816 95.192 21.0816 94.688ZM28.1662 92.324V96.2C28.1662 96.52 28.2342 96.748 28.3702 96.884C28.5062 97.012 28.7422 97.076 29.0782 97.076H29.8822V98H28.8982C28.2902 98 27.8342 97.86 27.5302 97.58C27.2262 97.3 27.0742 96.84 27.0742 96.2V92.324H26.2222V91.424H27.0742V89.768H28.1662V91.424H29.8822V92.324H28.1662ZM34.0733 98.108C33.4573 98.108 32.8973 97.968 32.3933 97.688C31.8973 97.408 31.5053 97.012 31.2173 96.5C30.9373 95.98 30.7973 95.38 30.7973 94.7C30.7973 94.028 30.9413 93.436 31.2293 92.924C31.5253 92.404 31.9253 92.008 32.4293 91.736C32.9333 91.456 33.4973 91.316 34.1213 91.316C34.7453 91.316 35.3093 91.456 35.8133 91.736C36.3173 92.008 36.7133 92.4 37.0013 92.912C37.2973 93.424 37.4453 94.02 37.4453 94.7C37.4453 95.38 37.2933 95.98 36.9893 96.5C36.6933 97.012 36.2893 97.408 35.7773 97.688C35.2653 97.968 34.6973 98.108 34.0733 98.108ZM34.0733 97.148C34.4653 97.148 34.8333 97.056 35.1773 96.872C35.5213 96.688 35.7973 96.412 36.0053 96.044C36.2213 95.676 36.3293 95.228 36.3293 94.7C36.3293 94.172 36.2253 93.724 36.0173 93.356C35.8093 92.988 35.5373 92.716 35.2013 92.54C34.8653 92.356 34.5013 92.264 34.1093 92.264C33.7093 92.264 33.3413 92.356 33.0053 92.54C32.6773 92.716 32.4133 92.988 32.2133 93.356C32.0133 93.724 31.9133 94.172 31.9133 94.7C31.9133 95.236 32.0093 95.688 32.2013 96.056C32.4013 96.424 32.6653 96.7 32.9933 96.884C33.3213 97.06 33.6813 97.148 34.0733 97.148ZM47.9123 91.424V98H46.8203V97.028C46.6123 97.364 46.3203 97.628 45.9443 97.82C45.5763 98.004 45.1683 98.096 44.7203 98.096C44.2083 98.096 43.7483 97.992 43.3403 97.784C42.9323 97.568 42.6083 97.248 42.3683 96.824C42.1363 96.4 42.0203 95.884 42.0203 95.276V91.424H43.1003V95.132C43.1003 95.78 43.2643 96.28 43.5923 96.632C43.9203 96.976 44.3683 97.148 44.9363 97.148C45.5203 97.148 45.9803 96.968 46.3163 96.608C46.6523 96.248 46.8203 95.724 46.8203 95.036V91.424H47.9123ZM50.848 92.636C51.064 92.26 51.384 91.948 51.808 91.7C52.24 91.444 52.74 91.316 53.308 91.316C53.892 91.316 54.42 91.456 54.892 91.736C55.372 92.016 55.748 92.412 56.02 92.924C56.292 93.428 56.428 94.016 56.428 94.688C56.428 95.352 56.292 95.944 56.02 96.464C55.748 96.984 55.372 97.388 54.892 97.676C54.42 97.964 53.892 98.108 53.308 98.108C52.748 98.108 52.252 97.984 51.82 97.736C51.396 97.48 51.072 97.164 50.848 96.788V101.12H49.756V91.424H50.848V92.636ZM55.312 94.688C55.312 94.192 55.212 93.76 55.012 93.392C54.812 93.024 54.54 92.744 54.196 92.552C53.86 92.36 53.488 92.264 53.08 92.264C52.68 92.264 52.308 92.364 51.964 92.564C51.628 92.756 51.356 93.04 51.148 93.416C50.948 93.784 50.848 94.212 50.848 94.7C50.848 95.196 50.948 95.632 51.148 96.008C51.356 96.376 51.628 96.66 51.964 96.86C52.308 97.052 52.68 97.148 53.08 97.148C53.488 97.148 53.86 97.052 54.196 96.86C54.54 96.66 54.812 96.376 55.012 96.008C55.212 95.632 55.312 95.192 55.312 94.688ZM58.9574 89.12V98H57.8654V89.12H58.9574ZM63.6865 98.108C63.0705 98.108 62.5105 97.968 62.0065 97.688C61.5105 97.408 61.1185 97.012 60.8305 96.5C60.5505 95.98 60.4105 95.38 60.4105 94.7C60.4105 94.028 60.5545 93.436 60.8425 92.924C61.1385 92.404 61.5385 92.008 62.0425 91.736C62.5465 91.456 63.1105 91.316 63.7345 91.316C64.3585 91.316 64.9225 91.456 65.4265 91.736C65.9305 92.008 66.3265 92.4 66.6145 92.912C66.9105 93.424 67.0585 94.02 67.0585 94.7C67.0585 95.38 66.9065 95.98 66.6025 96.5C66.3065 97.012 65.9025 97.408 65.3905 97.688C64.8785 97.968 64.3105 98.108 63.6865 98.108ZM63.6865 97.148C64.0785 97.148 64.4465 97.056 64.7905 96.872C65.1345 96.688 65.4105 96.412 65.6185 96.044C65.8345 95.676 65.9425 95.228 65.9425 94.7C65.9425 94.172 65.8385 93.724 65.6305 93.356C65.4225 92.988 65.1505 92.716 64.8145 92.54C64.4785 92.356 64.1145 92.264 63.7225 92.264C63.3225 92.264 62.9545 92.356 62.6185 92.54C62.2905 92.716 62.0265 92.988 61.8265 93.356C61.6265 93.724 61.5265 94.172 61.5265 94.7C61.5265 95.236 61.6225 95.688 61.8145 96.056C62.0145 96.424 62.2785 96.7 62.6065 96.884C62.9345 97.06 63.2945 97.148 63.6865 97.148ZM68.0863 94.688C68.0863 94.016 68.2223 93.428 68.4943 92.924C68.7663 92.412 69.1383 92.016 69.6103 91.736C70.0903 91.456 70.6223 91.316 71.2063 91.316C71.7823 91.316 72.2823 91.44 72.7063 91.688C73.1303 91.936 73.4463 92.248 73.6543 92.624V91.424H74.7583V98H73.6543V96.776C73.4383 97.16 73.1143 97.48 72.6823 97.736C72.2583 97.984 71.7623 98.108 71.1943 98.108C70.6103 98.108 70.0823 97.964 69.6103 97.676C69.1383 97.388 68.7663 96.984 68.4943 96.464C68.2223 95.944 68.0863 95.352 68.0863 94.688ZM73.6543 94.7C73.6543 94.204 73.5543 93.772 73.3543 93.404C73.1543 93.036 72.8823 92.756 72.5383 92.564C72.2023 92.364 71.8303 92.264 71.4223 92.264C71.0143 92.264 70.6423 92.36 70.3063 92.552C69.9703 92.744 69.7023 93.024 69.5023 93.392C69.3023 93.76 69.2023 94.192 69.2023 94.688C69.2023 95.192 69.3023 95.632 69.5023 96.008C69.7023 96.376 69.9703 96.66 70.3063 96.86C70.6423 97.052 71.0143 97.148 71.4223 97.148C71.8303 97.148 72.2023 97.052 72.5383 96.86C72.8823 96.66 73.1543 96.376 73.3543 96.008C73.5543 95.632 73.6543 95.196 73.6543 94.7ZM76.1957 94.688C76.1957 94.016 76.3317 93.428 76.6037 92.924C76.8757 92.412 77.2477 92.016 77.7197 91.736C78.1997 91.456 78.7357 91.316 79.3277 91.316C79.8397 91.316 80.3157 91.436 80.7557 91.676C81.1957 91.908 81.5317 92.216 81.7637 92.6V89.12H82.8677V98H81.7637V96.764C81.5477 97.156 81.2277 97.48 80.8037 97.736C80.3797 97.984 79.8837 98.108 79.3157 98.108C78.7317 98.108 78.1997 97.964 77.7197 97.676C77.2477 97.388 76.8757 96.984 76.6037 96.464C76.3317 95.944 76.1957 95.352 76.1957 94.688ZM81.7637 94.7C81.7637 94.204 81.6637 93.772 81.4637 93.404C81.2637 93.036 80.9917 92.756 80.6477 92.564C80.3117 92.364 79.9397 92.264 79.5317 92.264C79.1237 92.264 78.7517 92.36 78.4157 92.552C78.0797 92.744 77.8117 93.024 77.6117 93.392C77.4117 93.76 77.3117 94.192 77.3117 94.688C77.3117 95.192 77.4117 95.632 77.6117 96.008C77.8117 96.376 78.0797 96.66 78.4157 96.86C78.7517 97.052 79.1237 97.148 79.5317 97.148C79.9397 97.148 80.3117 97.052 80.6477 96.86C80.9917 96.66 81.2637 96.376 81.4637 96.008C81.6637 95.632 81.7637 95.196 81.7637 94.7ZM93.5763 91.424L89.6163 101.096H88.4883L89.7843 97.928L87.1323 91.424H88.3443L90.4083 96.752L92.4483 91.424H93.5763ZM97.542 98.108C96.926 98.108 96.366 97.968 95.862 97.688C95.366 97.408 94.974 97.012 94.686 96.5C94.406 95.98 94.266 95.38 94.266 94.7C94.266 94.028 94.41 93.436 94.698 92.924C94.994 92.404 95.394 92.008 95.898 91.736C96.402 91.456 96.966 91.316 97.59 91.316C98.214 91.316 98.778 91.456 99.282 91.736C99.786 92.008 100.182 92.4 100.47 92.912C100.766 93.424 100.914 94.02 100.914 94.7C100.914 95.38 100.762 95.98 100.458 96.5C100.162 97.012 99.758 97.408 99.246 97.688C98.734 97.968 98.166 98.108 97.542 98.108ZM97.542 97.148C97.934 97.148 98.302 97.056 98.646 96.872C98.99 96.688 99.266 96.412 99.474 96.044C99.69 95.676 99.798 95.228 99.798 94.7C99.798 94.172 99.694 93.724 99.486 93.356C99.278 92.988 99.006 92.716 98.67 92.54C98.334 92.356 97.97 92.264 97.578 92.264C97.178 92.264 96.81 92.356 96.474 92.54C96.146 92.716 95.882 92.988 95.682 93.356C95.482 93.724 95.382 94.172 95.382 94.7C95.382 95.236 95.478 95.688 95.67 96.056C95.87 96.424 96.134 96.7 96.462 96.884C96.79 97.06 97.15 97.148 97.542 97.148ZM108.182 91.424V98H107.09V97.028C106.882 97.364 106.59 97.628 106.214 97.82C105.846 98.004 105.438 98.096 104.99 98.096C104.478 98.096 104.018 97.992 103.61 97.784C103.202 97.568 102.878 97.248 102.638 96.824C102.406 96.4 102.29 95.884 102.29 95.276V91.424H103.37V95.132C103.37 95.78 103.534 96.28 103.862 96.632C104.19 96.976 104.638 97.148 105.206 97.148C105.79 97.148 106.25 96.968 106.586 96.608C106.922 96.248 107.09 95.724 107.09 95.036V91.424H108.182ZM111.118 92.492C111.31 92.116 111.582 91.824 111.934 91.616C112.294 91.408 112.73 91.304 113.242 91.304V92.432H112.954C111.73 92.432 111.118 93.096 111.118 94.424V98H110.026V91.424H111.118V92.492ZM122.402 96.404H119.066L118.514 98H116.75L119.762 89.612H121.718L124.73 98H122.954L122.402 96.404ZM121.946 95.06L120.734 91.556L119.521 95.06H121.946ZM130.175 98L128.327 94.736H127.535V98H125.855V89.624H128.999C129.647 89.624 130.199 89.74 130.655 89.972C131.111 90.196 131.451 90.504 131.675 90.896C131.907 91.28 132.023 91.712 132.023 92.192C132.023 92.744 131.863 93.244 131.543 93.692C131.223 94.132 130.747 94.436 130.115 94.604L132.119 98H130.175ZM127.535 93.476H128.939C129.395 93.476 129.735 93.368 129.959 93.152C130.183 92.928 130.295 92.62 130.295 92.228C130.295 91.844 130.183 91.548 129.959 91.34C129.735 91.124 129.395 91.016 128.939 91.016H127.535V93.476ZM139.243 89.624V90.98H137.011V98H135.331V90.98H133.099V89.624H139.243Z" fill="#828282"/>
</svg>
