<svg width="24" height="24" viewBox="0 0 24 24" fill="none" xmlns="http://www.w3.org/2000/svg">
<path d="M3.49902 11.9999L6.49902 8.99994M14.499 11.9999L3.49902 11.9999L14.499 11.9999ZM3.49902 11.9999L6.49902 14.9999L3.49902 11.9999Z" stroke="#000957" stroke-width="1.5" stroke-linecap="round" stroke-linejoin="round"/>
<path d="M18.999 7.99994V15.9999C18.999 16.9863 18.9943 17.3048 18.9559 17.5475C18.7187 19.0451 17.5441 20.2196 16.0465 20.4568C15.8038 20.4953 15.4853 20.4999 14.499 20.4999C13.5127 20.4999 13.1942 20.4953 12.9515 20.4568C11.4539 20.2196 10.2793 19.0451 10.0421 17.5475C10.0037 17.3048 9.99902 16.9863 9.99902 15.9999V15.7499C9.99902 15.3357 9.66323 14.9999 9.24902 14.9999C8.83481 14.9999 8.49902 15.3357 8.49902 15.7499V15.9999C8.49902 16.9289 8.49902 17.3934 8.56058 17.7821C8.89944 19.9216 10.5774 21.5995 12.7168 21.9384C13.1055 21.9999 13.57 21.9999 14.499 21.9999C15.428 21.9999 15.8925 21.9999 16.2812 21.9384C18.4206 21.5995 20.0986 19.9216 20.4374 17.7821C20.499 17.3934 20.499 16.9289 20.499 15.9999V7.99994C20.499 7.07094 20.499 6.60644 20.4374 6.21774C20.0986 4.07834 18.4206 2.40034 16.2812 2.06154C15.8925 1.99994 15.428 1.99994 14.499 1.99994C13.57 1.99994 13.1055 1.99994 12.7168 2.06154C10.5774 2.40034 8.89944 4.07834 8.56058 6.21774C8.49902 6.60644 8.49902 7.07094 8.49902 7.99994V8.24994C8.49902 8.66414 8.83481 8.99994 9.24902 8.99994C9.66323 8.99994 9.99902 8.66414 9.99902 8.24994V7.99994C9.99902 7.01364 10.0037 6.69514 10.0421 6.45244C10.2793 4.95484 11.4539 3.78024 12.9515 3.54304C13.1942 3.50464 13.5127 3.49994 14.499 3.49994C15.4853 3.49994 15.8038 3.50464 16.0465 3.54304C17.5441 3.78024 18.7187 4.95484 18.9559 6.45244C18.9943 6.69514 18.999 7.01364 18.999 7.99994Z" fill="#000957"/>
</svg>
