<svg width="30" height="30" viewBox="0 0 30 30" fill="none" xmlns="http://www.w3.org/2000/svg">
<path d="M19.0625 7.5C19.0625 9.74366 17.2436 11.5625 15 11.5625C12.7564 11.5625 10.9375 9.74366 10.9375 7.5C10.9375 5.25634 12.7564 3.4375 15 3.4375C17.2436 3.4375 19.0625 5.25634 19.0625 7.5Z" stroke="#1B1B1B" stroke-width="1.5"/>
<path d="M22.8125 21.25C22.8125 22.5945 22.0511 23.9002 20.6422 24.9065C19.2352 25.9116 17.2434 26.5625 15 26.5625C12.7566 26.5625 10.7648 25.9116 9.35772 24.9065C7.94889 23.9002 7.1875 22.5945 7.1875 21.25C7.1875 19.9055 7.94889 18.5997 9.35772 17.5935C10.7648 16.5884 12.7566 15.9375 15 15.9375C17.2434 15.9375 19.2352 16.5884 20.6422 17.5935C22.0511 18.5997 22.8125 19.9055 22.8125 21.25Z" stroke="#1B1B1B" stroke-width="1.5"/>
</svg>
