<svg width="22" height="22" viewBox="0 0 22 22" fill="none" xmlns="http://www.w3.org/2000/svg">
<path d="M5.49984 12.8334C6.51236 12.8334 7.33317 12.0125 7.33317 11C7.33317 9.9875 6.51236 9.16669 5.49984 9.16669C4.48732 9.16669 3.6665 9.9875 3.6665 11C3.6665 12.0125 4.48732 12.8334 5.49984 12.8334Z" stroke="black" stroke-width="1.5"/>
<path d="M15.5833 6.41667C16.5959 6.41667 17.4167 5.59586 17.4167 4.58333C17.4167 3.57081 16.5959 2.75 15.5833 2.75C14.5708 2.75 13.75 3.57081 13.75 4.58333C13.75 5.59586 14.5708 6.41667 15.5833 6.41667Z" stroke="black" stroke-width="1.5"/>
<path d="M6.98975 9.71032L13.7259 5.82123" stroke="black" stroke-width="1.5"/>
<path d="M15.5833 15.5833C16.5959 15.5833 17.4167 16.4041 17.4167 17.4167C17.4167 18.4292 16.5959 19.25 15.5833 19.25C14.5708 19.25 13.75 18.4292 13.75 17.4167C13.75 16.4041 14.5708 15.5833 15.5833 15.5833Z" stroke="black" stroke-width="1.5"/>
<path d="M6.98975 12.5121L13.7258 16.4012" stroke="black" stroke-width="1.5"/>
</svg>
