<svg width="24" height="25" viewBox="0 0 24 25" fill="none" xmlns="http://www.w3.org/2000/svg">
<path d="M14.438 0C14.6242 5.86785e-06 14.8056 0.0591106 14.9561 0.168802C15.1066 0.278494 15.2184 0.433112 15.2753 0.610388L16.2428 3.6166C16.6492 3.81537 17.0379 4.03877 17.4091 4.29031L20.4979 3.62539C20.6801 3.58651 20.8698 3.60643 21.0399 3.6823C21.21 3.75817 21.3516 3.88607 21.4443 4.04756L23.8823 8.26751C23.9754 8.42891 24.0149 8.61571 23.995 8.80097C23.975 8.98623 23.8968 9.16038 23.7715 9.29831L21.6519 11.6378C21.6827 12.0865 21.6827 12.5367 21.6519 12.9853L23.7715 15.3283C23.8968 15.4662 23.975 15.6404 23.995 15.8257C24.0149 16.0109 23.9754 16.1977 23.8823 16.3591L21.4443 20.5808C21.3513 20.742 21.2096 20.8695 21.0396 20.9451C20.8695 21.0206 20.6799 21.0403 20.4979 21.0012L17.4091 20.3363C17.0397 20.5861 16.6492 20.8113 16.2446 21.01L15.2753 24.0162C15.2184 24.1935 15.1066 24.3481 14.9561 24.4578C14.8056 24.5675 14.6242 24.6266 14.438 24.6266H9.56196C9.37576 24.6266 9.19435 24.5675 9.04388 24.4578C8.89341 24.3481 8.78164 24.1935 8.72466 24.0162L7.75894 21.0118C7.35369 20.8136 6.96282 20.5873 6.58918 20.3346L3.50206 21.0012C3.31993 21.0401 3.13017 21.0202 2.9601 20.9443C2.79002 20.8685 2.64842 20.7406 2.55569 20.5791L0.117655 16.3591C0.0245565 16.1977 -0.014877 16.0109 0.00504009 15.8257C0.0249572 15.6404 0.103196 15.4662 0.228475 15.3283L2.34812 12.9853C2.31742 12.5378 2.31742 12.0888 2.34812 11.6414L0.228475 9.29831C0.103196 9.16038 0.0249572 8.98623 0.00504009 8.80097C-0.014877 8.61571 0.0245565 8.42891 0.117655 8.26751L2.55569 4.0458C2.64868 3.88463 2.79039 3.7571 2.96044 3.68156C3.13049 3.60601 3.32012 3.58635 3.50206 3.62539L6.58918 4.29207C6.9621 4.04053 7.3526 3.81361 7.75894 3.61484L8.72642 0.610388C8.78321 0.433683 8.89445 0.279474 9.04422 0.169836C9.19399 0.060197 9.3746 0.000748768 9.5602 0H14.4363H14.438ZM13.7942 1.75904H10.2058L9.20664 4.86728L8.53292 5.19622C8.20173 5.35829 7.88201 5.54284 7.576 5.74856L6.9533 6.17073L3.75888 5.48118L1.96465 8.59117L4.15466 11.0151L4.10189 11.761C4.07662 12.1288 4.07662 12.4979 4.10189 12.8657L4.15466 13.6115L1.96113 16.0354L3.75712 19.1454L6.95154 18.4577L7.57424 18.8781C7.88025 19.0838 8.19997 19.2683 8.53116 19.4304L9.20488 19.7593L10.2058 22.8676H13.7977L14.8004 19.7576L15.4724 19.4304C15.8032 19.2687 16.1224 19.0842 16.4275 18.8781L17.0485 18.4577L20.2446 19.1454L22.0389 16.0354L19.8471 13.6115L19.8999 12.8657C19.9252 12.4973 19.9252 12.1276 19.8999 11.7592L19.8471 11.0134L22.0406 8.59117L20.2446 5.48118L17.0485 6.16721L16.4275 5.74856C16.1224 5.54242 15.8032 5.35786 15.4724 5.19622L14.8004 4.86904L13.796 1.75904H13.7942ZM12 7.03618C13.3996 7.03618 14.7418 7.59216 15.7315 8.58181C16.7212 9.57147 17.2771 10.9137 17.2771 12.3133C17.2771 13.7129 16.7212 15.0552 15.7315 16.0448C14.7418 17.0345 13.3996 17.5904 12 17.5904C10.6004 17.5904 9.25816 17.0345 8.2685 16.0448C7.27885 15.0552 6.72287 13.7129 6.72287 12.3133C6.72287 10.9137 7.27885 9.57147 8.2685 8.58181C9.25816 7.59216 10.6004 7.03618 12 7.03618ZM12 8.79522C11.0669 8.79522 10.1721 9.16588 9.51233 9.82565C8.85257 10.4854 8.48191 11.3803 8.48191 12.3133C8.48191 13.2464 8.85257 14.1412 9.51233 14.801C10.1721 15.4607 11.0669 15.8314 12 15.8314C12.9331 15.8314 13.8279 15.4607 14.4877 14.801C15.1474 14.1412 15.5181 13.2464 15.5181 12.3133C15.5181 11.3803 15.1474 10.4854 14.4877 9.82565C13.8279 9.16588 12.9331 8.79522 12 8.79522Z" fill="#000957"/>
</svg>
