<svg width="26" height="26" viewBox="0 0 26 26" fill="none" xmlns="http://www.w3.org/2000/svg">
<mask id="mask0_44_2519" style="mask-type:alpha" maskUnits="userSpaceOnUse" x="2" y="3" width="22" height="20">
<path fill-rule="evenodd" clip-rule="evenodd" d="M19.3311 6.61697C19.7752 6.67801 20.148 6.77092 20.4894 6.91232C21.8167 7.46208 22.8711 8.51656 23.4209 9.8438C23.8332 10.8392 23.8332 12.1012 23.8332 14.625C23.8332 17.1488 23.8332 18.4108 23.4209 19.4062C22.8711 20.7335 21.8167 21.7879 20.4894 22.3377C19.494 22.75 18.232 22.75 15.7082 22.75H10.2915C7.76765 22.75 6.50573 22.75 5.5103 22.3377C4.18306 21.7879 3.12858 20.7335 2.57882 19.4062C2.1665 18.4108 2.1665 17.1488 2.1665 14.625C2.1665 12.1012 2.1665 10.8392 2.57882 9.8438C3.12858 8.51656 4.18306 7.46208 5.5103 6.91232C5.85168 6.77092 6.2244 6.67801 6.66862 6.61697C7.02552 5.36375 7.29748 4.64808 7.82419 4.14649C7.99493 3.98389 8.18286 3.84035 8.38465 3.71841C9.15981 3.25 10.1512 3.25 12.1341 3.25H13.8655C15.8485 3.25 16.8398 3.25 17.6151 3.71841C17.8168 3.84035 18.0047 3.98389 18.1755 4.14649C18.7022 4.64808 18.9742 5.36375 19.3311 6.61697Z" fill="white"/>
</mask>
<g mask="url(#mask0_44_2519)">
<path d="M19.3311 6.61696L17.7682 7.06205L18.0588 8.08239L19.1098 8.22683L19.3311 6.61696ZM20.4894 6.91231L21.1112 5.41101L20.4894 6.91231ZM23.4209 9.84379L21.9196 10.4657L23.4209 9.84379ZM23.4209 19.4062L21.9196 18.7843L23.4209 19.4062ZM20.4894 22.3377L21.1112 23.839L20.4894 22.3377ZM5.5103 22.3377L4.88844 23.839L5.5103 22.3377ZM2.57882 19.4062L4.08013 18.7843L2.57882 19.4062ZM2.57882 9.84379L1.07752 9.22194L2.57882 9.84379ZM5.5103 6.91231L6.13217 8.41362L5.5103 6.91231ZM6.66862 6.61696L6.88985 8.22683L7.94089 8.08239L8.23147 7.06205L6.66862 6.61696ZM7.82419 4.14649L8.94486 5.32324L7.82419 4.14649ZM8.38465 3.71841L9.22508 5.1092L8.38465 3.71841ZM17.6151 3.71841L16.7746 5.1092L17.6151 3.71841ZM18.1755 4.14649L19.2962 2.96973L18.1755 4.14649ZM19.1098 8.22683C19.4539 8.27411 19.6853 8.33813 19.8675 8.41362L21.1112 5.41101C20.6107 5.2037 20.0968 5.0819 19.5523 5.00709L19.1098 8.22683ZM19.8675 8.41362C20.7966 8.79845 21.5347 9.53659 21.9196 10.4657L24.9221 9.22194C24.2075 7.49653 22.8366 6.1257 21.1112 5.41101L19.8675 8.41362ZM21.9196 10.4657C22.0301 10.7324 22.1145 11.0992 22.1604 11.7718C22.2073 12.4591 22.2082 13.3408 22.2082 14.625H25.4582C25.4582 13.3853 25.459 12.3742 25.4028 11.5506C25.3457 10.7125 25.224 9.95065 24.9221 9.22194L21.9196 10.4657ZM22.2082 14.625C22.2082 15.9092 22.2073 16.7909 22.1604 17.4782C22.1145 18.1508 22.0301 18.5176 21.9196 18.7843L24.9221 20.028C25.224 19.2994 25.3457 18.5375 25.4028 17.6994C25.459 16.8758 25.4582 15.8647 25.4582 14.625H22.2082ZM21.9196 18.7843C21.5347 19.7134 20.7966 20.4515 19.8675 20.8364L21.1112 23.839C22.8366 23.1243 24.2075 21.7534 24.9221 20.028L21.9196 18.7843ZM19.8675 20.8364C19.6008 20.9469 19.234 21.0313 18.5613 21.0772C17.8741 21.1241 16.9924 21.125 15.7082 21.125V24.375C16.9478 24.375 17.959 24.3759 18.7826 24.3196C19.6206 24.2625 20.3825 24.1408 21.1112 23.839L19.8675 20.8364ZM15.7082 21.125H10.2915V24.375H15.7082V21.125ZM10.2915 21.125C9.00734 21.125 8.12561 21.1241 7.43836 21.0772C6.76571 21.0313 6.39887 20.9469 6.13217 20.8364L4.88844 23.839C5.61716 24.1408 6.379 24.2625 7.21713 24.3196C8.04066 24.3759 9.05181 24.375 10.2915 24.375V21.125ZM6.13217 20.8364C5.2031 20.4515 4.46496 19.7134 4.08013 18.7843L1.07752 20.028C1.7922 21.7534 3.16304 23.1243 4.88844 23.839L6.13217 20.8364ZM4.08013 18.7843C3.96966 18.5176 3.88517 18.1508 3.83928 17.4782C3.79238 16.7909 3.7915 15.9092 3.7915 14.625H0.541505C0.541505 15.8647 0.540625 16.8758 0.596814 17.6994C0.653999 18.5375 0.775675 19.2994 1.07752 20.028L4.08013 18.7843ZM3.7915 14.625C3.7915 13.3408 3.79238 12.4591 3.83928 11.7718C3.88517 11.0992 3.96966 10.7324 4.08013 10.4657L1.07752 9.22194C0.775675 9.95065 0.653999 10.7125 0.596814 11.5506C0.540625 12.3742 0.541505 13.3853 0.541505 14.625H3.7915ZM4.08013 10.4657C4.46496 9.53659 5.2031 8.79845 6.13217 8.41362L4.88844 5.41101C3.16304 6.1257 1.7922 7.49653 1.07752 9.22194L4.08013 10.4657ZM6.13217 8.41362C6.31443 8.33813 6.54583 8.27411 6.88985 8.22683L6.44738 5.00709C5.90298 5.0819 5.38895 5.2037 4.88844 5.41101L6.13217 8.41362ZM8.23147 7.06205C8.60091 5.76485 8.78214 5.4782 8.94486 5.32324L6.70354 2.96973C5.81283 3.81798 5.45014 4.96265 5.10576 6.17187L8.23147 7.06205ZM8.94486 5.32324C9.03022 5.24194 9.12418 5.17017 9.22508 5.1092L7.54423 2.32761C7.24153 2.51052 6.95965 2.72583 6.70354 2.96973L8.94486 5.32324ZM9.22508 5.1092C9.32778 5.04714 9.50408 4.97134 9.96627 4.92568C10.4606 4.87684 11.1105 4.875 12.1341 4.875V1.625C11.1749 1.625 10.3376 1.62316 9.64672 1.69143C8.92368 1.76286 8.21668 1.92127 7.54423 2.32761L9.22508 5.1092ZM12.1341 4.875H13.8655V1.625H12.1341V4.875ZM13.8655 4.875C14.8892 4.875 15.5391 4.87684 16.0334 4.92568C16.4956 4.97134 16.6719 5.04714 16.7746 5.1092L18.4555 2.32761C17.783 1.92127 17.076 1.76286 16.353 1.69143C15.662 1.62316 14.8248 1.625 13.8655 1.625V4.875ZM16.7746 5.1092C16.8755 5.17017 16.9695 5.24194 17.0549 5.32325L19.2962 2.96973C19.0401 2.72583 18.7582 2.51052 18.4555 2.32761L16.7746 5.1092ZM17.0549 5.32324C17.2176 5.4782 17.3988 5.76485 17.7682 7.06205L20.8939 6.17187C20.5496 4.96265 20.1869 3.81798 19.2962 2.96973L17.0549 5.32324Z" fill="#1B1B1B"/>
<path d="M16.5207 14.0833C16.5207 12.1388 14.9443 10.5625 12.9998 10.5625C11.0553 10.5625 9.479 12.1388 9.479 14.0833C9.479 16.0278 11.0553 17.6042 12.9998 17.6042C14.9443 17.6042 16.5207 16.0278 16.5207 14.0833Z" stroke="#1B1B1B" stroke-width="1.5"/>
</g>
</svg>
