<svg width="109" height="109" viewBox="0 0 109 109" fill="none" xmlns="http://www.w3.org/2000/svg">
<path d="M54.5 0C24.9556 0 0 24.9555 0 54.5C0 84.0444 24.9556 109 54.5 109C84.0444 109 109 84.0444 109 54.5C109 24.9555 84.0444 0 54.5 0ZM54.5 27.25C63.9122 27.25 70.85 34.1824 70.85 43.6C70.85 53.0176 63.9122 59.95 54.5 59.95C45.0933 59.95 38.15 53.0176 38.15 43.6C38.15 34.1824 45.0933 27.25 54.5 27.25ZM26.6723 80.5074C31.5609 73.3134 39.7141 68.5174 49.05 68.5174H59.95C69.2913 68.5174 77.4391 73.3134 82.3277 80.5074C75.3626 87.963 65.4818 92.65 54.5 92.65C43.5182 92.65 33.6374 87.963 26.6723 80.5074Z" fill="#B6252A"/>
</svg>
